<mxfile host="app.diagrams.net" modified="2023-11-17T00:50:36.029Z" agent="Mozilla/5.0 (Windows NT 10.0; Win64; x64; rv:109.0) Gecko/20100101 Firefox/119.0" etag="enp7EuA2t-7L3us8rc58" version="22.1.2" type="github">
  <diagram id="C5RBs43oDa-KdzZeNtuy" name="Page-1">
    <mxGraphModel dx="1012" dy="579" grid="1" gridSize="10" guides="1" tooltips="1" connect="1" arrows="1" fold="1" page="1" pageScale="1" pageWidth="827" pageHeight="1169" math="0" shadow="0">
      <root>
        <mxCell id="WIyWlLk6GJQsqaUBKTNV-0" />
        <mxCell id="WIyWlLk6GJQsqaUBKTNV-1" parent="WIyWlLk6GJQsqaUBKTNV-0" />
        <mxCell id="rB8AbhrMiuU7Tu_F4UXK-46" style="edgeStyle=orthogonalEdgeStyle;rounded=0;orthogonalLoop=1;jettySize=auto;html=1;exitX=0.5;exitY=1;exitDx=0;exitDy=0;" edge="1" parent="WIyWlLk6GJQsqaUBKTNV-1" source="WIyWlLk6GJQsqaUBKTNV-3" target="rB8AbhrMiuU7Tu_F4UXK-2">
          <mxGeometry relative="1" as="geometry" />
        </mxCell>
        <mxCell id="WIyWlLk6GJQsqaUBKTNV-3" value="Welcome page" style="rounded=1;whiteSpace=wrap;html=1;fontSize=12;glass=0;strokeWidth=1;shadow=0;" parent="WIyWlLk6GJQsqaUBKTNV-1" vertex="1">
          <mxGeometry x="160" y="80" width="120" height="40" as="geometry" />
        </mxCell>
        <mxCell id="WIyWlLk6GJQsqaUBKTNV-4" value="Yes" style="rounded=0;html=1;jettySize=auto;orthogonalLoop=1;fontSize=11;endArrow=block;endFill=0;endSize=8;strokeWidth=1;shadow=0;labelBackgroundColor=none;edgeStyle=orthogonalEdgeStyle;" parent="WIyWlLk6GJQsqaUBKTNV-1" edge="1">
          <mxGeometry x="-0.1522" y="-15" relative="1" as="geometry">
            <mxPoint as="offset" />
            <mxPoint x="714.75" y="930" as="sourcePoint" />
            <mxPoint x="715" y="1000" as="targetPoint" />
          </mxGeometry>
        </mxCell>
        <mxCell id="WIyWlLk6GJQsqaUBKTNV-8" value="No" style="rounded=0;html=1;jettySize=auto;orthogonalLoop=1;fontSize=11;endArrow=block;endFill=0;endSize=8;strokeWidth=1;shadow=0;labelBackgroundColor=none;edgeStyle=orthogonalEdgeStyle;entryX=0.021;entryY=0.403;entryDx=0;entryDy=0;entryPerimeter=0;exitX=0;exitY=0.5;exitDx=0;exitDy=0;exitPerimeter=0;" parent="WIyWlLk6GJQsqaUBKTNV-1" source="rB8AbhrMiuU7Tu_F4UXK-45" target="rB8AbhrMiuU7Tu_F4UXK-40" edge="1">
          <mxGeometry x="0.3333" y="20" relative="1" as="geometry">
            <mxPoint as="offset" />
            <mxPoint x="680" y="890" as="sourcePoint" />
            <mxPoint x="680" y="1000" as="targetPoint" />
            <Array as="points">
              <mxPoint x="590" y="895" />
              <mxPoint x="590" y="650" />
            </Array>
          </mxGeometry>
        </mxCell>
        <mxCell id="rB8AbhrMiuU7Tu_F4UXK-41" style="edgeStyle=orthogonalEdgeStyle;rounded=0;orthogonalLoop=1;jettySize=auto;html=1;exitX=0.5;exitY=1;exitDx=0;exitDy=0;entryX=0.5;entryY=0;entryDx=0;entryDy=0;" edge="1" parent="WIyWlLk6GJQsqaUBKTNV-1" source="WIyWlLk6GJQsqaUBKTNV-12" target="rB8AbhrMiuU7Tu_F4UXK-40">
          <mxGeometry relative="1" as="geometry" />
        </mxCell>
        <mxCell id="WIyWlLk6GJQsqaUBKTNV-12" value="Home page" style="rounded=1;whiteSpace=wrap;html=1;fontSize=12;glass=0;strokeWidth=1;shadow=0;" parent="WIyWlLk6GJQsqaUBKTNV-1" vertex="1">
          <mxGeometry x="655" y="510" width="120" height="40" as="geometry" />
        </mxCell>
        <mxCell id="rB8AbhrMiuU7Tu_F4UXK-21" style="edgeStyle=orthogonalEdgeStyle;rounded=0;orthogonalLoop=1;jettySize=auto;html=1;exitX=0.5;exitY=1;exitDx=0;exitDy=0;entryX=0.5;entryY=1;entryDx=0;entryDy=0;" edge="1" parent="WIyWlLk6GJQsqaUBKTNV-1" source="rB8AbhrMiuU7Tu_F4UXK-2" target="rB8AbhrMiuU7Tu_F4UXK-19">
          <mxGeometry relative="1" as="geometry" />
        </mxCell>
        <mxCell id="rB8AbhrMiuU7Tu_F4UXK-2" value="Login/register" style="rounded=1;whiteSpace=wrap;html=1;absoluteArcSize=1;arcSize=14;strokeWidth=2;" vertex="1" parent="WIyWlLk6GJQsqaUBKTNV-1">
          <mxGeometry x="170" y="210" width="100" height="100" as="geometry" />
        </mxCell>
        <mxCell id="rB8AbhrMiuU7Tu_F4UXK-3" value="" style="verticalLabelPosition=middle;verticalAlign=middle;html=1;shape=trapezoid;perimeter=trapezoidPerimeter;whiteSpace=wrap;size=0.23;arcSize=10;flipV=1;labelPosition=center;align=center;rotation=-180;" vertex="1" parent="WIyWlLk6GJQsqaUBKTNV-1">
          <mxGeometry x="370" y="230" width="120" height="60" as="geometry" />
        </mxCell>
        <mxCell id="rB8AbhrMiuU7Tu_F4UXK-6" value="Select Login" style="text;html=1;strokeColor=none;fillColor=none;align=center;verticalAlign=middle;whiteSpace=wrap;rounded=0;" vertex="1" parent="WIyWlLk6GJQsqaUBKTNV-1">
          <mxGeometry x="180" y="365" width="60" height="30" as="geometry" />
        </mxCell>
        <mxCell id="rB8AbhrMiuU7Tu_F4UXK-7" style="edgeStyle=orthogonalEdgeStyle;rounded=0;orthogonalLoop=1;jettySize=auto;html=1;exitX=1;exitY=0.5;exitDx=0;exitDy=0;entryX=0.925;entryY=0.506;entryDx=0;entryDy=0;entryPerimeter=0;" edge="1" parent="WIyWlLk6GJQsqaUBKTNV-1" source="rB8AbhrMiuU7Tu_F4UXK-2" target="rB8AbhrMiuU7Tu_F4UXK-3">
          <mxGeometry relative="1" as="geometry" />
        </mxCell>
        <mxCell id="rB8AbhrMiuU7Tu_F4UXK-11" style="edgeStyle=orthogonalEdgeStyle;rounded=0;orthogonalLoop=1;jettySize=auto;html=1;exitX=0.5;exitY=1;exitDx=0;exitDy=0;entryX=0;entryY=0.5;entryDx=0;entryDy=0;entryPerimeter=0;" edge="1" parent="WIyWlLk6GJQsqaUBKTNV-1" source="rB8AbhrMiuU7Tu_F4UXK-8" target="rB8AbhrMiuU7Tu_F4UXK-10">
          <mxGeometry relative="1" as="geometry">
            <mxPoint x="630.3333333333333" y="360" as="targetPoint" />
          </mxGeometry>
        </mxCell>
        <mxCell id="rB8AbhrMiuU7Tu_F4UXK-8" value="Login page" style="rounded=1;whiteSpace=wrap;html=1;absoluteArcSize=1;arcSize=14;strokeWidth=2;" vertex="1" parent="WIyWlLk6GJQsqaUBKTNV-1">
          <mxGeometry x="580" y="200" width="100" height="100" as="geometry" />
        </mxCell>
        <mxCell id="rB8AbhrMiuU7Tu_F4UXK-9" style="edgeStyle=orthogonalEdgeStyle;rounded=0;orthogonalLoop=1;jettySize=auto;html=1;exitX=0;exitY=0.5;exitDx=0;exitDy=0;entryX=0;entryY=0.6;entryDx=0;entryDy=0;entryPerimeter=0;" edge="1" parent="WIyWlLk6GJQsqaUBKTNV-1" source="rB8AbhrMiuU7Tu_F4UXK-3" target="rB8AbhrMiuU7Tu_F4UXK-8">
          <mxGeometry relative="1" as="geometry">
            <mxPoint x="530" y="260" as="targetPoint" />
          </mxGeometry>
        </mxCell>
        <mxCell id="rB8AbhrMiuU7Tu_F4UXK-10" value="Login correct" style="strokeWidth=2;html=1;shape=mxgraph.flowchart.decision;whiteSpace=wrap;" vertex="1" parent="WIyWlLk6GJQsqaUBKTNV-1">
          <mxGeometry x="680" y="320" width="70" height="70" as="geometry" />
        </mxCell>
        <mxCell id="rB8AbhrMiuU7Tu_F4UXK-14" style="edgeStyle=orthogonalEdgeStyle;rounded=0;orthogonalLoop=1;jettySize=auto;html=1;exitX=0.5;exitY=0;exitDx=0;exitDy=0;exitPerimeter=0;entryX=0.5;entryY=0;entryDx=0;entryDy=0;" edge="1" parent="WIyWlLk6GJQsqaUBKTNV-1" source="rB8AbhrMiuU7Tu_F4UXK-12" target="rB8AbhrMiuU7Tu_F4UXK-8">
          <mxGeometry relative="1" as="geometry">
            <Array as="points">
              <mxPoint x="770" y="160" />
              <mxPoint x="630" y="160" />
            </Array>
          </mxGeometry>
        </mxCell>
        <mxCell id="rB8AbhrMiuU7Tu_F4UXK-12" value="Error" style="strokeWidth=2;html=1;shape=mxgraph.flowchart.start_2;whiteSpace=wrap;" vertex="1" parent="WIyWlLk6GJQsqaUBKTNV-1">
          <mxGeometry x="740" y="210" width="60" height="60" as="geometry" />
        </mxCell>
        <mxCell id="rB8AbhrMiuU7Tu_F4UXK-17" value="Yes" style="rounded=0;html=1;jettySize=auto;orthogonalLoop=1;fontSize=11;endArrow=block;endFill=0;endSize=8;strokeWidth=1;shadow=0;labelBackgroundColor=none;edgeStyle=orthogonalEdgeStyle;" edge="1" parent="WIyWlLk6GJQsqaUBKTNV-1" target="WIyWlLk6GJQsqaUBKTNV-12">
          <mxGeometry y="20" relative="1" as="geometry">
            <mxPoint as="offset" />
            <mxPoint x="714.67" y="390" as="sourcePoint" />
            <mxPoint x="714.67" y="530" as="targetPoint" />
          </mxGeometry>
        </mxCell>
        <mxCell id="rB8AbhrMiuU7Tu_F4UXK-18" value="No" style="rounded=0;html=1;jettySize=auto;orthogonalLoop=1;fontSize=11;endArrow=block;endFill=0;endSize=8;strokeWidth=1;shadow=0;labelBackgroundColor=none;edgeStyle=orthogonalEdgeStyle;entryX=0.5;entryY=1;entryDx=0;entryDy=0;entryPerimeter=0;exitX=0.986;exitY=0.504;exitDx=0;exitDy=0;exitPerimeter=0;" edge="1" parent="WIyWlLk6GJQsqaUBKTNV-1" source="rB8AbhrMiuU7Tu_F4UXK-10" target="rB8AbhrMiuU7Tu_F4UXK-12">
          <mxGeometry x="0.3333" y="20" relative="1" as="geometry">
            <mxPoint as="offset" />
            <mxPoint x="750" y="360" as="sourcePoint" />
            <mxPoint x="750" y="470" as="targetPoint" />
            <Array as="points">
              <mxPoint x="770" y="355" />
            </Array>
          </mxGeometry>
        </mxCell>
        <mxCell id="rB8AbhrMiuU7Tu_F4UXK-24" style="edgeStyle=orthogonalEdgeStyle;rounded=0;orthogonalLoop=1;jettySize=auto;html=1;exitX=0.5;exitY=0;exitDx=0;exitDy=0;" edge="1" parent="WIyWlLk6GJQsqaUBKTNV-1" source="rB8AbhrMiuU7Tu_F4UXK-19" target="rB8AbhrMiuU7Tu_F4UXK-23">
          <mxGeometry relative="1" as="geometry" />
        </mxCell>
        <mxCell id="rB8AbhrMiuU7Tu_F4UXK-19" value="" style="verticalLabelPosition=middle;verticalAlign=middle;html=1;shape=trapezoid;perimeter=trapezoidPerimeter;whiteSpace=wrap;size=0.23;arcSize=10;flipV=1;labelPosition=center;align=center;rotation=-180;" vertex="1" parent="WIyWlLk6GJQsqaUBKTNV-1">
          <mxGeometry x="160" y="360" width="120" height="60" as="geometry" />
        </mxCell>
        <mxCell id="rB8AbhrMiuU7Tu_F4UXK-20" value="Select Login" style="text;html=1;strokeColor=none;fillColor=none;align=center;verticalAlign=middle;whiteSpace=wrap;rounded=0;" vertex="1" parent="WIyWlLk6GJQsqaUBKTNV-1">
          <mxGeometry x="400" y="245" width="60" height="30" as="geometry" />
        </mxCell>
        <mxCell id="rB8AbhrMiuU7Tu_F4UXK-22" value="Select Register" style="text;html=1;strokeColor=none;fillColor=none;align=center;verticalAlign=middle;whiteSpace=wrap;rounded=0;" vertex="1" parent="WIyWlLk6GJQsqaUBKTNV-1">
          <mxGeometry x="190" y="375" width="60" height="30" as="geometry" />
        </mxCell>
        <mxCell id="rB8AbhrMiuU7Tu_F4UXK-26" style="edgeStyle=orthogonalEdgeStyle;rounded=0;orthogonalLoop=1;jettySize=auto;html=1;exitX=0.5;exitY=1;exitDx=0;exitDy=0;entryX=0.496;entryY=0.031;entryDx=0;entryDy=0;entryPerimeter=0;" edge="1" parent="WIyWlLk6GJQsqaUBKTNV-1" source="rB8AbhrMiuU7Tu_F4UXK-23" target="rB8AbhrMiuU7Tu_F4UXK-25">
          <mxGeometry relative="1" as="geometry">
            <Array as="points">
              <mxPoint x="420" y="470" />
              <mxPoint x="220" y="470" />
            </Array>
          </mxGeometry>
        </mxCell>
        <mxCell id="rB8AbhrMiuU7Tu_F4UXK-23" value="Form page" style="rounded=1;whiteSpace=wrap;html=1;absoluteArcSize=1;arcSize=14;strokeWidth=2;" vertex="1" parent="WIyWlLk6GJQsqaUBKTNV-1">
          <mxGeometry x="370" y="320" width="100" height="100" as="geometry" />
        </mxCell>
        <mxCell id="rB8AbhrMiuU7Tu_F4UXK-29" style="edgeStyle=orthogonalEdgeStyle;rounded=0;orthogonalLoop=1;jettySize=auto;html=1;exitX=0.5;exitY=0;exitDx=0;exitDy=0;" edge="1" parent="WIyWlLk6GJQsqaUBKTNV-1" source="rB8AbhrMiuU7Tu_F4UXK-25" target="rB8AbhrMiuU7Tu_F4UXK-28">
          <mxGeometry relative="1" as="geometry" />
        </mxCell>
        <mxCell id="rB8AbhrMiuU7Tu_F4UXK-25" value="" style="verticalLabelPosition=middle;verticalAlign=middle;html=1;shape=trapezoid;perimeter=trapezoidPerimeter;whiteSpace=wrap;size=0.23;arcSize=10;flipV=1;labelPosition=center;align=center;rotation=-180;" vertex="1" parent="WIyWlLk6GJQsqaUBKTNV-1">
          <mxGeometry x="170" y="510" width="100" height="60" as="geometry" />
        </mxCell>
        <mxCell id="rB8AbhrMiuU7Tu_F4UXK-27" value="fill out form and send" style="text;html=1;strokeColor=none;fillColor=none;align=center;verticalAlign=middle;whiteSpace=wrap;rounded=0;" vertex="1" parent="WIyWlLk6GJQsqaUBKTNV-1">
          <mxGeometry x="190" y="525" width="60" height="30" as="geometry" />
        </mxCell>
        <mxCell id="rB8AbhrMiuU7Tu_F4UXK-28" value="Form page" style="rounded=1;whiteSpace=wrap;html=1;absoluteArcSize=1;arcSize=14;strokeWidth=2;" vertex="1" parent="WIyWlLk6GJQsqaUBKTNV-1">
          <mxGeometry x="170" y="630" width="100" height="100" as="geometry" />
        </mxCell>
        <mxCell id="rB8AbhrMiuU7Tu_F4UXK-30" value="" style="strokeWidth=2;html=1;shape=mxgraph.flowchart.decision;whiteSpace=wrap;" vertex="1" parent="WIyWlLk6GJQsqaUBKTNV-1">
          <mxGeometry x="330" y="645" width="70" height="70" as="geometry" />
        </mxCell>
        <mxCell id="rB8AbhrMiuU7Tu_F4UXK-31" value="Valid registration" style="text;html=1;strokeColor=none;fillColor=none;align=center;verticalAlign=middle;whiteSpace=wrap;rounded=0;" vertex="1" parent="WIyWlLk6GJQsqaUBKTNV-1">
          <mxGeometry x="335" y="660" width="60" height="30" as="geometry" />
        </mxCell>
        <mxCell id="rB8AbhrMiuU7Tu_F4UXK-32" value="Yes" style="rounded=0;html=1;jettySize=auto;orthogonalLoop=1;fontSize=11;endArrow=block;endFill=0;endSize=8;strokeWidth=1;shadow=0;labelBackgroundColor=none;edgeStyle=orthogonalEdgeStyle;exitX=0.5;exitY=0;exitDx=0;exitDy=0;exitPerimeter=0;entryX=-0.002;entryY=0.374;entryDx=0;entryDy=0;entryPerimeter=0;" edge="1" parent="WIyWlLk6GJQsqaUBKTNV-1" source="rB8AbhrMiuU7Tu_F4UXK-30" target="WIyWlLk6GJQsqaUBKTNV-12">
          <mxGeometry y="20" relative="1" as="geometry">
            <mxPoint as="offset" />
            <mxPoint x="370.03" y="634.99" as="sourcePoint" />
            <mxPoint x="369.99969696969697" y="725.0142424242422" as="targetPoint" />
          </mxGeometry>
        </mxCell>
        <mxCell id="rB8AbhrMiuU7Tu_F4UXK-33" style="edgeStyle=orthogonalEdgeStyle;rounded=0;orthogonalLoop=1;jettySize=auto;html=1;exitX=1;exitY=0.5;exitDx=0;exitDy=0;entryX=0;entryY=0.5;entryDx=0;entryDy=0;entryPerimeter=0;" edge="1" parent="WIyWlLk6GJQsqaUBKTNV-1" source="rB8AbhrMiuU7Tu_F4UXK-28" target="rB8AbhrMiuU7Tu_F4UXK-30">
          <mxGeometry relative="1" as="geometry" />
        </mxCell>
        <mxCell id="rB8AbhrMiuU7Tu_F4UXK-36" style="edgeStyle=orthogonalEdgeStyle;rounded=0;orthogonalLoop=1;jettySize=auto;html=1;exitX=0;exitY=0.5;exitDx=0;exitDy=0;exitPerimeter=0;entryX=0.5;entryY=1;entryDx=0;entryDy=0;" edge="1" parent="WIyWlLk6GJQsqaUBKTNV-1" source="rB8AbhrMiuU7Tu_F4UXK-34" target="rB8AbhrMiuU7Tu_F4UXK-28">
          <mxGeometry relative="1" as="geometry" />
        </mxCell>
        <mxCell id="rB8AbhrMiuU7Tu_F4UXK-34" value="Error" style="strokeWidth=2;html=1;shape=mxgraph.flowchart.start_2;whiteSpace=wrap;" vertex="1" parent="WIyWlLk6GJQsqaUBKTNV-1">
          <mxGeometry x="250" y="750" width="60" height="60" as="geometry" />
        </mxCell>
        <mxCell id="rB8AbhrMiuU7Tu_F4UXK-37" value="No" style="rounded=0;html=1;jettySize=auto;orthogonalLoop=1;fontSize=11;endArrow=block;endFill=0;endSize=8;strokeWidth=1;shadow=0;labelBackgroundColor=none;edgeStyle=orthogonalEdgeStyle;entryX=1;entryY=0.5;entryDx=0;entryDy=0;entryPerimeter=0;exitX=0.5;exitY=1;exitDx=0;exitDy=0;exitPerimeter=0;" edge="1" parent="WIyWlLk6GJQsqaUBKTNV-1" source="rB8AbhrMiuU7Tu_F4UXK-30" target="rB8AbhrMiuU7Tu_F4UXK-34">
          <mxGeometry x="0.3333" y="20" relative="1" as="geometry">
            <mxPoint as="offset" />
            <mxPoint x="364.77" y="855" as="sourcePoint" />
            <mxPoint x="364.77" y="965" as="targetPoint" />
            <Array as="points">
              <mxPoint x="365" y="780" />
              <mxPoint x="330" y="780" />
            </Array>
          </mxGeometry>
        </mxCell>
        <mxCell id="rB8AbhrMiuU7Tu_F4UXK-44" style="edgeStyle=orthogonalEdgeStyle;rounded=0;orthogonalLoop=1;jettySize=auto;html=1;exitX=0.5;exitY=1;exitDx=0;exitDy=0;entryX=0.5;entryY=1;entryDx=0;entryDy=0;" edge="1" parent="WIyWlLk6GJQsqaUBKTNV-1" source="rB8AbhrMiuU7Tu_F4UXK-40" target="rB8AbhrMiuU7Tu_F4UXK-42">
          <mxGeometry relative="1" as="geometry" />
        </mxCell>
        <mxCell id="rB8AbhrMiuU7Tu_F4UXK-40" value="Hotels searchs for locations" style="rounded=1;whiteSpace=wrap;html=1;absoluteArcSize=1;arcSize=14;strokeWidth=2;" vertex="1" parent="WIyWlLk6GJQsqaUBKTNV-1">
          <mxGeometry x="665" y="610" width="100" height="100" as="geometry" />
        </mxCell>
        <mxCell id="rB8AbhrMiuU7Tu_F4UXK-42" value="" style="verticalLabelPosition=middle;verticalAlign=middle;html=1;shape=trapezoid;perimeter=trapezoidPerimeter;whiteSpace=wrap;size=0.23;arcSize=10;flipV=1;labelPosition=center;align=center;rotation=-180;" vertex="1" parent="WIyWlLk6GJQsqaUBKTNV-1">
          <mxGeometry x="665" y="750" width="100" height="60" as="geometry" />
        </mxCell>
        <mxCell id="rB8AbhrMiuU7Tu_F4UXK-43" value="fill out filter fields" style="text;html=1;strokeColor=none;fillColor=none;align=center;verticalAlign=middle;whiteSpace=wrap;rounded=0;" vertex="1" parent="WIyWlLk6GJQsqaUBKTNV-1">
          <mxGeometry x="685" y="765" width="60" height="30" as="geometry" />
        </mxCell>
        <mxCell id="rB8AbhrMiuU7Tu_F4UXK-45" value="Valid filter fields" style="strokeWidth=2;html=1;shape=mxgraph.flowchart.decision;whiteSpace=wrap;" vertex="1" parent="WIyWlLk6GJQsqaUBKTNV-1">
          <mxGeometry x="680" y="860" width="70" height="70" as="geometry" />
        </mxCell>
        <mxCell id="rB8AbhrMiuU7Tu_F4UXK-47" style="edgeStyle=orthogonalEdgeStyle;rounded=0;orthogonalLoop=1;jettySize=auto;html=1;exitX=0.5;exitY=0;exitDx=0;exitDy=0;entryX=0.5;entryY=0;entryDx=0;entryDy=0;entryPerimeter=0;" edge="1" parent="WIyWlLk6GJQsqaUBKTNV-1" source="rB8AbhrMiuU7Tu_F4UXK-42" target="rB8AbhrMiuU7Tu_F4UXK-45">
          <mxGeometry relative="1" as="geometry" />
        </mxCell>
        <mxCell id="rB8AbhrMiuU7Tu_F4UXK-58" style="edgeStyle=orthogonalEdgeStyle;rounded=0;orthogonalLoop=1;jettySize=auto;html=1;exitX=0;exitY=0.25;exitDx=0;exitDy=0;entryX=0.143;entryY=0.405;entryDx=0;entryDy=0;entryPerimeter=0;" edge="1" parent="WIyWlLk6GJQsqaUBKTNV-1" source="rB8AbhrMiuU7Tu_F4UXK-48" target="rB8AbhrMiuU7Tu_F4UXK-56">
          <mxGeometry relative="1" as="geometry" />
        </mxCell>
        <mxCell id="rB8AbhrMiuU7Tu_F4UXK-48" value="Search results" style="rounded=1;whiteSpace=wrap;html=1;absoluteArcSize=1;arcSize=14;strokeWidth=2;" vertex="1" parent="WIyWlLk6GJQsqaUBKTNV-1">
          <mxGeometry x="675" y="1000" width="95" height="90" as="geometry" />
        </mxCell>
        <mxCell id="rB8AbhrMiuU7Tu_F4UXK-59" style="edgeStyle=orthogonalEdgeStyle;rounded=0;orthogonalLoop=1;jettySize=auto;html=1;entryX=0.5;entryY=1;entryDx=0;entryDy=0;exitX=1.001;exitY=0.441;exitDx=0;exitDy=0;exitPerimeter=0;" edge="1" parent="WIyWlLk6GJQsqaUBKTNV-1" source="rB8AbhrMiuU7Tu_F4UXK-65" target="rB8AbhrMiuU7Tu_F4UXK-48">
          <mxGeometry relative="1" as="geometry">
            <mxPoint x="580" y="1150" as="sourcePoint" />
            <Array as="points">
              <mxPoint x="723" y="1150" />
            </Array>
          </mxGeometry>
        </mxCell>
        <mxCell id="rB8AbhrMiuU7Tu_F4UXK-66" style="edgeStyle=orthogonalEdgeStyle;rounded=0;orthogonalLoop=1;jettySize=auto;html=1;exitX=0.5;exitY=0;exitDx=0;exitDy=0;entryX=0.5;entryY=0;entryDx=0;entryDy=0;" edge="1" parent="WIyWlLk6GJQsqaUBKTNV-1" source="rB8AbhrMiuU7Tu_F4UXK-49" target="rB8AbhrMiuU7Tu_F4UXK-65">
          <mxGeometry relative="1" as="geometry" />
        </mxCell>
        <mxCell id="rB8AbhrMiuU7Tu_F4UXK-49" value="" style="verticalLabelPosition=middle;verticalAlign=middle;html=1;shape=trapezoid;perimeter=trapezoidPerimeter;whiteSpace=wrap;size=0.23;arcSize=10;flipV=1;labelPosition=center;align=center;rotation=-180;" vertex="1" parent="WIyWlLk6GJQsqaUBKTNV-1">
          <mxGeometry x="430" y="1020" width="100" height="60" as="geometry" />
        </mxCell>
        <mxCell id="rB8AbhrMiuU7Tu_F4UXK-50" value="add a hotel to favorites" style="text;html=1;strokeColor=none;fillColor=none;align=center;verticalAlign=middle;whiteSpace=wrap;rounded=0;" vertex="1" parent="WIyWlLk6GJQsqaUBKTNV-1">
          <mxGeometry x="450" y="1035" width="60" height="30" as="geometry" />
        </mxCell>
        <mxCell id="rB8AbhrMiuU7Tu_F4UXK-61" style="edgeStyle=orthogonalEdgeStyle;rounded=0;orthogonalLoop=1;jettySize=auto;html=1;exitX=1;exitY=0.5;exitDx=0;exitDy=0;entryX=1;entryY=0.5;entryDx=0;entryDy=0;" edge="1" parent="WIyWlLk6GJQsqaUBKTNV-1" source="rB8AbhrMiuU7Tu_F4UXK-53" target="rB8AbhrMiuU7Tu_F4UXK-49">
          <mxGeometry relative="1" as="geometry" />
        </mxCell>
        <mxCell id="rB8AbhrMiuU7Tu_F4UXK-67" style="edgeStyle=orthogonalEdgeStyle;rounded=0;orthogonalLoop=1;jettySize=auto;html=1;exitX=0;exitY=0.5;exitDx=0;exitDy=0;entryX=0;entryY=0.75;entryDx=0;entryDy=0;" edge="1" parent="WIyWlLk6GJQsqaUBKTNV-1" source="rB8AbhrMiuU7Tu_F4UXK-53" target="WIyWlLk6GJQsqaUBKTNV-12">
          <mxGeometry relative="1" as="geometry">
            <Array as="points">
              <mxPoint x="180" y="1050" />
              <mxPoint x="180" y="830" />
              <mxPoint x="430" y="830" />
              <mxPoint x="430" y="540" />
            </Array>
          </mxGeometry>
        </mxCell>
        <mxCell id="rB8AbhrMiuU7Tu_F4UXK-53" value="Page Hotel with his events" style="rounded=1;whiteSpace=wrap;html=1;absoluteArcSize=1;arcSize=14;strokeWidth=2;" vertex="1" parent="WIyWlLk6GJQsqaUBKTNV-1">
          <mxGeometry x="235" y="1000" width="100" height="100" as="geometry" />
        </mxCell>
        <mxCell id="rB8AbhrMiuU7Tu_F4UXK-55" style="edgeStyle=orthogonalEdgeStyle;rounded=0;orthogonalLoop=1;jettySize=auto;html=1;entryX=0;entryY=0.75;entryDx=0;entryDy=0;exitX=-0.007;exitY=0.443;exitDx=0;exitDy=0;exitPerimeter=0;" edge="1" parent="WIyWlLk6GJQsqaUBKTNV-1" source="rB8AbhrMiuU7Tu_F4UXK-48" target="rB8AbhrMiuU7Tu_F4UXK-49">
          <mxGeometry relative="1" as="geometry">
            <mxPoint x="675" y="1070" as="sourcePoint" />
            <Array as="points" />
          </mxGeometry>
        </mxCell>
        <mxCell id="rB8AbhrMiuU7Tu_F4UXK-56" value="" style="verticalLabelPosition=middle;verticalAlign=middle;html=1;shape=trapezoid;perimeter=trapezoidPerimeter;whiteSpace=wrap;size=0.23;arcSize=10;flipV=1;labelPosition=center;align=center;rotation=-180;" vertex="1" parent="WIyWlLk6GJQsqaUBKTNV-1">
          <mxGeometry x="510" y="900" width="97" height="50" as="geometry" />
        </mxCell>
        <mxCell id="rB8AbhrMiuU7Tu_F4UXK-57" value="Select hotels" style="text;html=1;strokeColor=none;fillColor=none;align=center;verticalAlign=middle;whiteSpace=wrap;rounded=0;" vertex="1" parent="WIyWlLk6GJQsqaUBKTNV-1">
          <mxGeometry x="527.5" y="910" width="60" height="30" as="geometry" />
        </mxCell>
        <mxCell id="rB8AbhrMiuU7Tu_F4UXK-60" style="edgeStyle=orthogonalEdgeStyle;rounded=0;orthogonalLoop=1;jettySize=auto;html=1;exitX=1;exitY=1;exitDx=0;exitDy=0;entryX=0.452;entryY=-0.012;entryDx=0;entryDy=0;entryPerimeter=0;" edge="1" parent="WIyWlLk6GJQsqaUBKTNV-1" source="rB8AbhrMiuU7Tu_F4UXK-56" target="rB8AbhrMiuU7Tu_F4UXK-53">
          <mxGeometry relative="1" as="geometry">
            <Array as="points">
              <mxPoint x="528" y="870" />
              <mxPoint x="280" y="870" />
            </Array>
          </mxGeometry>
        </mxCell>
        <mxCell id="rB8AbhrMiuU7Tu_F4UXK-63" style="edgeStyle=orthogonalEdgeStyle;rounded=0;orthogonalLoop=1;jettySize=auto;html=1;entryX=0.447;entryY=1.017;entryDx=0;entryDy=0;entryPerimeter=0;exitX=-0.007;exitY=0.445;exitDx=0;exitDy=0;exitPerimeter=0;" edge="1" parent="WIyWlLk6GJQsqaUBKTNV-1" source="rB8AbhrMiuU7Tu_F4UXK-65" target="rB8AbhrMiuU7Tu_F4UXK-53">
          <mxGeometry relative="1" as="geometry">
            <mxPoint x="470" y="1150" as="sourcePoint" />
            <Array as="points">
              <mxPoint x="280" y="1150" />
            </Array>
          </mxGeometry>
        </mxCell>
        <mxCell id="rB8AbhrMiuU7Tu_F4UXK-65" value="Return Page Hotels/Search results" style="rounded=1;whiteSpace=wrap;html=1;absoluteArcSize=1;arcSize=14;strokeWidth=2;" vertex="1" parent="WIyWlLk6GJQsqaUBKTNV-1">
          <mxGeometry x="432.5" y="1110" width="95" height="90" as="geometry" />
        </mxCell>
        <mxCell id="rB8AbhrMiuU7Tu_F4UXK-68" value="" style="verticalLabelPosition=middle;verticalAlign=middle;html=1;shape=trapezoid;perimeter=trapezoidPerimeter;whiteSpace=wrap;size=0.23;arcSize=10;flipV=1;labelPosition=center;align=center;rotation=-180;" vertex="1" parent="WIyWlLk6GJQsqaUBKTNV-1">
          <mxGeometry x="130" y="880" width="97" height="50" as="geometry" />
        </mxCell>
        <mxCell id="rB8AbhrMiuU7Tu_F4UXK-69" value="&lt;div&gt;Select return home page&lt;/div&gt;&lt;div&gt;&lt;br&gt;&lt;/div&gt;" style="text;html=1;strokeColor=none;fillColor=none;align=center;verticalAlign=middle;whiteSpace=wrap;rounded=0;" vertex="1" parent="WIyWlLk6GJQsqaUBKTNV-1">
          <mxGeometry x="142.75" y="890" width="71.5" height="40" as="geometry" />
        </mxCell>
        <mxCell id="rB8AbhrMiuU7Tu_F4UXK-70" style="edgeStyle=orthogonalEdgeStyle;rounded=0;orthogonalLoop=1;jettySize=auto;html=1;exitX=0;exitY=0.75;exitDx=0;exitDy=0;entryX=0.821;entryY=1.011;entryDx=0;entryDy=0;entryPerimeter=0;" edge="1" parent="WIyWlLk6GJQsqaUBKTNV-1" source="rB8AbhrMiuU7Tu_F4UXK-53" target="rB8AbhrMiuU7Tu_F4UXK-48">
          <mxGeometry relative="1" as="geometry">
            <Array as="points">
              <mxPoint x="180" y="1075" />
              <mxPoint x="180" y="1280" />
              <mxPoint x="753" y="1280" />
            </Array>
          </mxGeometry>
        </mxCell>
        <mxCell id="rB8AbhrMiuU7Tu_F4UXK-71" value="" style="verticalLabelPosition=middle;verticalAlign=middle;html=1;shape=trapezoid;perimeter=trapezoidPerimeter;whiteSpace=wrap;size=0.23;arcSize=10;flipV=1;labelPosition=center;align=center;rotation=-180;" vertex="1" parent="WIyWlLk6GJQsqaUBKTNV-1">
          <mxGeometry x="130" y="1150" width="97" height="50" as="geometry" />
        </mxCell>
        <mxCell id="rB8AbhrMiuU7Tu_F4UXK-72" value="&lt;div&gt;Select return search results&lt;br&gt;&lt;/div&gt;&lt;div&gt;&lt;br&gt;&lt;/div&gt;" style="text;html=1;strokeColor=none;fillColor=none;align=center;verticalAlign=middle;whiteSpace=wrap;rounded=0;" vertex="1" parent="WIyWlLk6GJQsqaUBKTNV-1">
          <mxGeometry x="130" y="1160" width="97.25" height="40" as="geometry" />
        </mxCell>
        <mxCell id="rB8AbhrMiuU7Tu_F4UXK-77" value="" style="strokeWidth=2;html=1;shape=mxgraph.flowchart.decision;whiteSpace=wrap;" vertex="1" parent="WIyWlLk6GJQsqaUBKTNV-1">
          <mxGeometry x="380" y="910" width="70" height="70" as="geometry" />
        </mxCell>
        <mxCell id="rB8AbhrMiuU7Tu_F4UXK-78" value="User logged" style="text;html=1;strokeColor=none;fillColor=none;align=center;verticalAlign=middle;whiteSpace=wrap;rounded=0;" vertex="1" parent="WIyWlLk6GJQsqaUBKTNV-1">
          <mxGeometry x="385" y="920" width="60" height="40" as="geometry" />
        </mxCell>
        <mxCell id="rB8AbhrMiuU7Tu_F4UXK-79" style="edgeStyle=orthogonalEdgeStyle;rounded=0;orthogonalLoop=1;jettySize=auto;html=1;exitX=0.5;exitY=1;exitDx=0;exitDy=0;entryX=1;entryY=0.5;entryDx=0;entryDy=0;entryPerimeter=0;" edge="1" parent="WIyWlLk6GJQsqaUBKTNV-1" source="rB8AbhrMiuU7Tu_F4UXK-49" target="rB8AbhrMiuU7Tu_F4UXK-77">
          <mxGeometry relative="1" as="geometry" />
        </mxCell>
        <mxCell id="rB8AbhrMiuU7Tu_F4UXK-81" value="Yes" style="rounded=0;html=1;jettySize=auto;orthogonalLoop=1;fontSize=11;endArrow=block;endFill=0;endSize=8;strokeWidth=1;shadow=0;labelBackgroundColor=none;edgeStyle=orthogonalEdgeStyle;entryX=1;entryY=1;entryDx=0;entryDy=0;exitX=0.5;exitY=1;exitDx=0;exitDy=0;exitPerimeter=0;" edge="1" parent="WIyWlLk6GJQsqaUBKTNV-1" source="rB8AbhrMiuU7Tu_F4UXK-77">
          <mxGeometry x="-0.1522" y="-15" relative="1" as="geometry">
            <mxPoint as="offset" />
            <mxPoint x="399.25" y="968.78" as="sourcePoint" />
            <mxPoint x="448.69918699186985" y="1034.999512195122" as="targetPoint" />
            <Array as="points">
              <mxPoint x="415" y="1034" />
              <mxPoint x="449" y="1034" />
            </Array>
          </mxGeometry>
        </mxCell>
        <mxCell id="rB8AbhrMiuU7Tu_F4UXK-83" style="edgeStyle=orthogonalEdgeStyle;rounded=0;orthogonalLoop=1;jettySize=auto;html=1;entryX=1;entryY=0.5;entryDx=0;entryDy=0;exitX=1;exitY=0.5;exitDx=0;exitDy=0;" edge="1" parent="WIyWlLk6GJQsqaUBKTNV-1" source="WIyWlLk6GJQsqaUBKTNV-3" target="WIyWlLk6GJQsqaUBKTNV-12">
          <mxGeometry relative="1" as="geometry">
            <mxPoint x="335" y="100" as="sourcePoint" />
            <mxPoint x="832.52" y="534.56" as="targetPoint" />
            <Array as="points">
              <mxPoint x="832" y="100" />
              <mxPoint x="832" y="530" />
            </Array>
          </mxGeometry>
        </mxCell>
        <mxCell id="rB8AbhrMiuU7Tu_F4UXK-84" value="No" style="rounded=0;html=1;jettySize=auto;orthogonalLoop=1;fontSize=11;endArrow=block;endFill=0;endSize=8;strokeWidth=1;shadow=0;labelBackgroundColor=none;edgeStyle=orthogonalEdgeStyle;entryX=0;entryY=0.5;entryDx=0;entryDy=0;exitX=0;exitY=0.5;exitDx=0;exitDy=0;exitPerimeter=0;" edge="1" parent="WIyWlLk6GJQsqaUBKTNV-1" source="rB8AbhrMiuU7Tu_F4UXK-77" target="rB8AbhrMiuU7Tu_F4UXK-2">
          <mxGeometry x="0.3333" y="20" relative="1" as="geometry">
            <mxPoint as="offset" />
            <mxPoint x="345" y="890" as="sourcePoint" />
            <mxPoint x="290" y="955" as="targetPoint" />
            <Array as="points">
              <mxPoint x="110" y="945" />
              <mxPoint x="110" y="260" />
            </Array>
          </mxGeometry>
        </mxCell>
        <mxCell id="rB8AbhrMiuU7Tu_F4UXK-85" value="Visitor user" style="shape=umlActor;verticalLabelPosition=bottom;verticalAlign=top;html=1;outlineConnect=0;" vertex="1" parent="WIyWlLk6GJQsqaUBKTNV-1">
          <mxGeometry x="90" y="60" width="30" height="60" as="geometry" />
        </mxCell>
      </root>
    </mxGraphModel>
  </diagram>
</mxfile>
